<svg xmlns="http://www.w3.org/2000/svg" data-name="Layer 1" viewBox="0 0 512 512"><g data-name="&lt;Group&gt;"><g data-name="&lt;Group&gt;"><path fill="#00acea" d="M492,139.425V36.771A7.812,7.812,0,0,0,484,29H28a7.808,7.808,0,0,0-8,7.771V417.687A8.274,8.274,0,0,0,28,426H261v6.241A50.875,50.875,0,0,0,312.018,483h31.631C371.764,483,395,460.356,395,432.241V426h89a8.277,8.277,0,0,0,8-8.313V139.579c0-.026,0-.051,0-.077S492,139.451,492,139.425ZM476,45v87H36V45ZM343.649,305C362.941,305,379,320.485,379,339.777V351H336V305ZM320,351H277V339.777A34.873,34.873,0,0,1,312.018,305H320Zm23.649,116H312.018A34.858,34.858,0,0,1,277,432.241V367H379v65.241C379,451.534,362.941,467,343.649,467ZM395,410V339.777C395,311.663,371.764,289,343.649,289h-7.636l.226-38.783a7.142,7.142,0,0,1,7.14-7.217h5.948a7.465,7.465,0,0,1,7.141,7.5c0,12.76,10.381,23.5,23.139,23.5h6.219A23.4,23.4,0,0,0,409,250.625V190.249a8,8,0,0,0-16,0v60.376A7.381,7.381,0,0,1,385.826,258h-6.219a7.465,7.465,0,0,1-7.139-7.5c0-12.76-10.381-23.5-23.141-23.5h-5.948a23.043,23.043,0,0,0-23.14,23.17L320.013,289h-8A50.891,50.891,0,0,0,261,339.777V410H36V148H476V410Z" data-name="&lt;Compound Path&gt;"/><path fill="#00acea" d="M143.31 117.261c15.972 0 28.966-13.455 28.966-29.994S159.282 57.273 143.31 57.273s-28.966 13.455-28.966 29.994S127.338 117.261 143.31 117.261zm0-43.988c7.15 0 12.966 6.278 12.966 13.994s-5.816 13.994-12.966 13.994-12.966-6.278-12.966-13.994S136.16 73.273 143.31 73.273zM211.448 117.261c15.972 0 28.966-13.455 28.966-29.994S227.42 57.273 211.448 57.273s-28.966 13.455-28.966 29.994S195.477 117.261 211.448 117.261zm0-43.988c7.15 0 12.966 6.278 12.966 13.994s-5.816 13.994-12.966 13.994-12.966-6.278-12.966-13.994S204.3 73.273 211.448 73.273zM75.172 117.261c15.972 0 28.966-13.455 28.966-29.994S91.144 57.273 75.172 57.273 46.206 70.728 46.206 87.267 59.2 117.261 75.172 117.261zm0-43.988c7.149 0 12.966 6.278 12.966 13.994s-5.817 13.994-12.966 13.994S62.206 94.983 62.206 87.267 68.022 73.273 75.172 73.273z" data-name="&lt;Compound Path&gt;"/></g><g data-name="&lt;Group&gt;"><path fill="#00efd1" d="M213,173a8,8,0,0,0-8-8H78a8,8,0,0,0-8,8V382a8,8,0,0,0,8,8H205a8,8,0,0,0,8-8ZM131.9,277.728,86,353.683V201.774ZM91.932,181h98.136L141,262.192ZM141,292.808,190.068,374H91.932Zm9.1-15.08L196,201.774V353.683Z" data-name="&lt;Compound Path&gt;"/></g></g></svg>